<?xml version="1.0" encoding="UTF-8" standalone="no"?>
<!-- Created with Inkscape (http://www.inkscape.org/) -->

<svg
   xmlns:dc="http://purl.org/dc/elements/1.1/"
   xmlns:cc="http://creativecommons.org/ns#"
   xmlns:rdf="http://www.w3.org/1999/02/22-rdf-syntax-ns#"
   xmlns:svg="http://www.w3.org/2000/svg"
   xmlns="http://www.w3.org/2000/svg"
   xmlns:sodipodi="http://sodipodi.sourceforge.net/DTD/sodipodi-0.dtd"
   xmlns:inkscape="http://www.inkscape.org/namespaces/inkscape"
   width="281.08255mm"
   height="108.51224mm"
   viewBox="0 0 281.08255 108.51224"
   version="1.1"
   id="svg8"
   inkscape:version="0.92.3 (2405546, 2018-03-11)"
   sodipodi:docname="pronto_logotype.svg">
  <defs
     id="defs2" />
  <sodipodi:namedview
     id="base"
     pagecolor="#ffffff"
     bordercolor="#666666"
     borderopacity="1.0"
     inkscape:pageopacity="0.0"
     inkscape:pageshadow="2"
     inkscape:zoom="1.4142136"
     inkscape:cx="611.26764"
     inkscape:cy="10.355532"
     inkscape:document-units="mm"
     inkscape:current-layer="layer1"
     showgrid="false"
     inkscape:window-width="2560"
     inkscape:window-height="1408"
     inkscape:window-x="0"
     inkscape:window-y="32"
     inkscape:window-maximized="1"
     showguides="true"
     inkscape:guide-bbox="true"
     fit-margin-top="0"
     fit-margin-left="0"
     fit-margin-right="0"
     fit-margin-bottom="0">
    <sodipodi:guide
       position="80.964873,21.28789"
       orientation="0,1"
       id="guide960"
       inkscape:locked="false" />
  </sodipodi:namedview>
  <metadata
     id="metadata5">
    <rdf:RDF>
      <cc:Work
         rdf:about="">
        <dc:format>image/svg+xml</dc:format>
        <dc:type
           rdf:resource="http://purl.org/dc/dcmitype/StillImage" />
        <dc:title></dc:title>
      </cc:Work>
    </rdf:RDF>
  </metadata>
  <g
     inkscape:label="Layer 1"
     inkscape:groupmode="layer"
     id="layer1"
     transform="translate(24.1701,8.3162882)">
    <g
       id="g1014">
      <path
         id="path815"
         d="m 25.675952,-8.3162882 c -11.023932,0 -21.1236175,4.1316599 -28.8323486,10.9212971 V -8.3152545 H -24.1701 V 100.19595 H -3.1563966 V 68.194287 c 7.7087528,6.789282 17.8083346,10.92078 28.8323486,10.92078 24.054303,0 43.714643,-19.660341 43.714643,-43.714643 0,-24.054305 -19.66034,-43.7167122 -43.714643,-43.7167122 z m 0,15.0001179 c 15.947702,-2e-7 28.714525,12.7688913 28.714525,28.7165943 0,15.947699 -12.766823,28.715041 -28.714525,28.715041 -15.9477016,0 -28.7150429,-12.767342 -28.7150429,-28.715041 0,-15.947703 12.7673413,-28.7165943 28.7150429,-28.7165943 z"
         style="color:#000000;font-style:normal;font-variant:normal;font-weight:normal;font-stretch:normal;font-size:medium;line-height:normal;font-family:sans-serif;font-variant-ligatures:normal;font-variant-position:normal;font-variant-caps:normal;font-variant-numeric:normal;font-variant-alternates:normal;font-feature-settings:normal;text-indent:0;text-align:start;text-decoration:none;text-decoration-line:none;text-decoration-style:solid;text-decoration-color:#000000;letter-spacing:normal;word-spacing:normal;text-transform:none;writing-mode:lr-tb;direction:ltr;text-orientation:mixed;dominant-baseline:auto;baseline-shift:baseline;text-anchor:start;white-space:normal;shape-padding:0;clip-rule:nonzero;display:inline;overflow:visible;visibility:visible;opacity:1;isolation:auto;mix-blend-mode:normal;color-interpolation:sRGB;color-interpolation-filters:linearRGB;solid-color:#000000;solid-opacity:1;vector-effect:none;fill:#000000;fill-opacity:1;fill-rule:nonzero;stroke:none;stroke-width:15;stroke-linecap:round;stroke-linejoin:round;stroke-miterlimit:4;stroke-dasharray:none;stroke-dashoffset:12;stroke-opacity:1;paint-order:markers fill stroke;color-rendering:auto;image-rendering:auto;shape-rendering:auto;text-rendering:auto;enable-background:accumulate"
         inkscape:connector-curvature="0" />
      <path
         inkscape:connector-curvature="0"
         id="path821"
         d="m 43.95671,17.252209 -40.838465,22.208943 18.597082,0.03244 0.03223,18.596871 z"
         style="opacity:1;fill:#005dbf;fill-opacity:1;stroke:none;stroke-width:6.26739883;stroke-linecap:round;stroke-linejoin:round;stroke-miterlimit:4;stroke-dasharray:none;stroke-dashoffset:12;stroke-opacity:1;paint-order:markers fill stroke" />
    </g>
    <g
       aria-label="ronto"
       transform="rotate(-0.2703646)"
       style="font-style:normal;font-variant:normal;font-weight:normal;font-stretch:normal;font-size:21.20312309px;line-height:1.25;font-family:'Latin Modern Sans';-inkscape-font-specification:'Latin Modern Sans';letter-spacing:-0.01587499px;word-spacing:0px;fill:#000000;fill-opacity:1;stroke:#000000;stroke-width:5;stroke-miterlimit:4;stroke-dasharray:none;stroke-opacity:1"
       id="text841">
      <path
         style="color:#000000;font-style:normal;font-variant:normal;font-weight:normal;font-stretch:normal;font-size:medium;line-height:1.25;font-family:'Latin Modern Sans';-inkscape-font-specification:'Latin Modern Sans';font-variant-ligatures:normal;font-variant-position:normal;font-variant-caps:normal;font-variant-numeric:normal;font-variant-alternates:normal;font-feature-settings:normal;text-indent:0;text-align:start;text-decoration:none;text-decoration-line:none;text-decoration-style:solid;text-decoration-color:#000000;letter-spacing:-5.26256227px;word-spacing:0px;text-transform:none;writing-mode:lr-tb;direction:ltr;text-orientation:mixed;dominant-baseline:auto;baseline-shift:baseline;text-anchor:start;white-space:normal;shape-padding:0;clip-rule:nonzero;display:inline;overflow:visible;visibility:visible;opacity:1;isolation:auto;mix-blend-mode:normal;color-interpolation:sRGB;color-interpolation-filters:linearRGB;solid-color:#000000;solid-opacity:1;vector-effect:none;fill:#000000;fill-opacity:1;fill-rule:nonzero;stroke:none;stroke-width:5;stroke-linecap:butt;stroke-linejoin:miter;stroke-miterlimit:4;stroke-dasharray:none;stroke-dashoffset:0;stroke-opacity:1;color-rendering:auto;image-rendering:auto;shape-rendering:auto;text-rendering:auto;enable-background:accumulate"
         d="m 86.970703,31.998047 c -2.04911,0 -3.975124,0.841584 -5.640625,2.123047 V 32.505859 H 72.15625 v 47.033203 h 9.173828 v -30.18164 c 0,-0.757007 0.153227,-1.684231 0.484375,-2.751953 0.397915,-1.064086 0.88791,-1.992924 1.474609,-2.792969 l 0.02148,-0.0293 0.02148,-0.0332 c 0.583555,-0.848806 1.232256,-1.486869 1.972657,-1.980469 l 0.04687,-0.03125 0.04492,-0.0332 c 0.654556,-0.480008 1.165063,-0.636719 1.779297,-0.636719 1.065334,0 2.031149,0.181385 2.960938,0.542969 1.004748,0.390736 1.95492,0.919316 2.867187,1.603516 l 2.142578,1.607422 4.986331,-7.707032 -1.92969,-1.388672 c -1.828085,-1.316221 -3.533765,-2.286622 -5.214844,-2.875 C 91.251131,32.243568 89.26221,31.99805 86.970688,31.99805 Z m -4.439453,5.609375 c -0.01374,0.0092 -0.02146,0.02594 -0.03516,0.03516 -0.0174,0.01256 -0.03933,0.0166 -0.05664,0.0293 z m -3.275391,3.248047 c -0.009,0.01224 -0.01254,0.02875 -0.02148,0.04102 -0.0059,0.0086 -0.01559,0.01291 -0.02148,0.02148 z"
         id="path991"
         inkscape:connector-curvature="0" />
      <path
         style="color:#000000;font-style:normal;font-variant:normal;font-weight:normal;font-stretch:normal;font-size:medium;line-height:1.25;font-family:'Latin Modern Sans';-inkscape-font-specification:'Latin Modern Sans';font-variant-ligatures:normal;font-variant-position:normal;font-variant-caps:normal;font-variant-numeric:normal;font-variant-alternates:normal;font-feature-settings:normal;text-indent:0;text-align:start;text-decoration:none;text-decoration-line:none;text-decoration-style:solid;text-decoration-color:#000000;letter-spacing:-2.59291697px;word-spacing:0px;text-transform:none;writing-mode:lr-tb;direction:ltr;text-orientation:mixed;dominant-baseline:auto;baseline-shift:baseline;text-anchor:start;white-space:normal;shape-padding:0;clip-rule:nonzero;display:inline;overflow:visible;visibility:visible;opacity:1;isolation:auto;mix-blend-mode:normal;color-interpolation:sRGB;color-interpolation-filters:linearRGB;solid-color:#000000;solid-opacity:1;vector-effect:none;fill:#000000;fill-opacity:1;fill-rule:nonzero;stroke:none;stroke-width:5;stroke-linecap:butt;stroke-linejoin:miter;stroke-miterlimit:4;stroke-dasharray:none;stroke-dashoffset:0;stroke-opacity:1;color-rendering:auto;image-rendering:auto;shape-rendering:auto;text-rendering:auto;enable-background:accumulate"
         d="m 119.52344,31.794922 c -6.68505,0 -12.58939,2.452745 -17.1543,7.162109 -4.61724,4.626734 -7.023437,10.507069 -7.023437,17.117188 0,6.680572 2.406632,12.603896 7.041017,17.238281 4.57355,4.573546 10.4654,6.939453 17.13672,6.939453 6.68057,0 12.60389,-2.40663 17.23828,-7.041015 4.57355,-4.573546 6.93945,-10.465405 6.93945,-17.136719 0,-6.680574 -2.40858,-12.603897 -7.04297,-17.238281 -4.62963,-4.629633 -10.51559,-7.041016 -17.13476,-7.041016 z m 0,9.070312 c 4.37085,0 7.76571,1.415366 10.73242,4.441407 l 0.01,0.0078 0.008,0.0098 c 2.96234,2.962343 4.35742,6.367727 4.35742,10.75 0,4.294921 -1.41458,7.705595 -4.45898,10.75 -2.96824,2.968236 -6.34195,4.357422 -10.64844,4.357422 -4.21876,0 -7.59826,-1.408804 -10.64844,-4.458985 -3.05018,-3.050181 -4.45898,-6.42968 -4.45898,-10.648437 0,-4.130452 1.42896,-7.516852 4.56054,-10.648438 l 0.008,-0.0098 0.01,-0.0078 c 3.05998,-3.119979 6.39885,-4.542969 10.5293,-4.542969 z"
         id="path993"
         inkscape:connector-curvature="0" />
      <path
         style="color:#000000;font-style:normal;font-variant:normal;font-weight:normal;font-stretch:normal;font-size:medium;line-height:1.25;font-family:'Latin Modern Sans';-inkscape-font-specification:'Latin Modern Sans';font-variant-ligatures:normal;font-variant-position:normal;font-variant-caps:normal;font-variant-numeric:normal;font-variant-alternates:normal;font-feature-settings:normal;text-indent:0;text-align:start;text-decoration:none;text-decoration-line:none;text-decoration-style:solid;text-decoration-color:#000000;letter-spacing:-3.91583323px;word-spacing:0px;text-transform:none;writing-mode:lr-tb;direction:ltr;text-orientation:mixed;dominant-baseline:auto;baseline-shift:baseline;text-anchor:start;white-space:normal;shape-padding:0;clip-rule:nonzero;display:inline;overflow:visible;visibility:visible;opacity:1;isolation:auto;mix-blend-mode:normal;color-interpolation:sRGB;color-interpolation-filters:linearRGB;solid-color:#000000;solid-opacity:1;vector-effect:none;fill:#000000;fill-opacity:1;fill-rule:nonzero;stroke:none;stroke-width:5;stroke-linecap:butt;stroke-linejoin:miter;stroke-miterlimit:4;stroke-dasharray:none;stroke-dashoffset:0;stroke-opacity:1;color-rendering:auto;image-rendering:auto;shape-rendering:auto;text-rendering:auto;enable-background:accumulate"
         d="m 165.38086,31.998047 c -3.76823,0 -7.00454,0.803647 -9.61133,2.275391 v -1.767579 h -9.17383 v 47.033203 h 9.17383 V 51.494141 c 0,-3.565296 0.88368,-6.006373 2.50195,-7.78125 l 0.0137,-0.01367 0.0137,-0.01563 c 1.50667,-1.707562 3.63523,-2.615235 7.08203,-2.615235 3.54058,0 5.70156,0.901536 7.14844,2.507813 1.44687,1.606277 2.35937,4.257316 2.35937,8.326172 v 27.636718 h 9.17383 v -2.5 -25.544921 c 0,-5.79264 -1.55316,-10.691299 -4.84375,-14.222657 -3.31398,-3.556475 -8.13725,-5.273437 -13.83789,-5.273437 z"
         id="path995"
         inkscape:connector-curvature="0"
         sodipodi:nodetypes="ccccccscccscscccsccc" />
      <path
         style="color:#000000;font-style:normal;font-variant:normal;font-weight:normal;font-stretch:normal;font-size:medium;line-height:1.25;font-family:'Latin Modern Sans';-inkscape-font-specification:'Latin Modern Sans';font-variant-ligatures:normal;font-variant-position:normal;font-variant-caps:normal;font-variant-numeric:normal;font-variant-alternates:normal;font-feature-settings:normal;text-indent:0;text-align:start;text-decoration:none;text-decoration-line:none;text-decoration-style:solid;text-decoration-color:#000000;letter-spacing:-2.59291697px;word-spacing:0px;text-transform:none;writing-mode:lr-tb;direction:ltr;text-orientation:mixed;dominant-baseline:auto;baseline-shift:baseline;text-anchor:start;white-space:normal;shape-padding:0;clip-rule:nonzero;display:inline;overflow:visible;visibility:visible;opacity:1;isolation:auto;mix-blend-mode:normal;color-interpolation:sRGB;color-interpolation-filters:linearRGB;solid-color:#000000;solid-opacity:1;vector-effect:none;fill:#000000;fill-opacity:1;fill-rule:nonzero;stroke:none;stroke-width:5;stroke-linecap:butt;stroke-linejoin:miter;stroke-miterlimit:4;stroke-dasharray:none;stroke-dashoffset:0;stroke-opacity:1;color-rendering:auto;image-rendering:auto;shape-rendering:auto;text-rendering:auto;enable-background:accumulate"
         d="m 190.73633,14.085938 v 18.419921 h -5.70117 v 9.173829 h 5.70117 v 37.859374 h 9.17187 V 41.679688 h 9.76953 v -2.5 -6.673829 H 199.9082 V 14.085938 Z"
         id="path997"
         inkscape:connector-curvature="0" />
      <path
         style="color:#000000;font-style:normal;font-variant:normal;font-weight:normal;font-stretch:normal;font-size:medium;line-height:1.25;font-family:'Latin Modern Sans';-inkscape-font-specification:'Latin Modern Sans';font-variant-ligatures:normal;font-variant-position:normal;font-variant-caps:normal;font-variant-numeric:normal;font-variant-alternates:normal;font-feature-settings:normal;text-indent:0;text-align:start;text-decoration:none;text-decoration-line:none;text-decoration-style:solid;text-decoration-color:#000000;letter-spacing:-6.69924641px;word-spacing:0px;text-transform:none;writing-mode:lr-tb;direction:ltr;text-orientation:mixed;dominant-baseline:auto;baseline-shift:baseline;text-anchor:start;white-space:normal;shape-padding:0;clip-rule:nonzero;display:inline;overflow:visible;visibility:visible;opacity:1;isolation:auto;mix-blend-mode:normal;color-interpolation:sRGB;color-interpolation-filters:linearRGB;solid-color:#000000;solid-opacity:1;vector-effect:none;fill:#000000;fill-opacity:1;fill-rule:nonzero;stroke:none;stroke-width:5;stroke-linecap:butt;stroke-linejoin:miter;stroke-miterlimit:4;stroke-dasharray:none;stroke-dashoffset:0;stroke-opacity:1;color-rendering:auto;image-rendering:auto;shape-rendering:auto;text-rendering:auto;enable-background:accumulate"
         d="m 232.47266,31.794922 c -6.68505,0 -12.5894,2.452747 -17.1543,7.162109 -4.61724,4.626734 -7.02539,10.507069 -7.02539,17.117188 0,6.680573 2.40858,12.603896 7.04297,17.238281 4.57354,4.573547 10.4654,6.939453 17.13672,6.939453 6.68057,0 12.60194,-2.40663 17.23632,-7.041015 4.57355,-4.573547 6.94141,-10.465406 6.94141,-17.136719 0,-6.680574 -2.40858,-12.603897 -7.04297,-17.238281 -4.62963,-4.629633 -10.51559,-7.041016 -17.13476,-7.041016 z m 0,9.070312 c 4.37085,0 7.76571,1.415366 10.73242,4.441407 l 0.008,0.0078 0.01,0.0098 c 2.96234,2.962343 4.35546,6.367727 4.35546,10.75 0,4.294922 -1.41262,7.705596 -4.45703,10.75 -2.96823,2.968235 -6.34194,4.357422 -10.64843,4.357422 -4.21877,0 -7.60022,-1.408804 -10.65039,-4.458985 -3.05018,-3.050181 -4.45704,-6.429679 -4.45704,-10.648437 0,-4.130453 1.42897,-7.516852 4.56055,-10.648438 l 0.008,-0.0098 0.008,-0.0078 c 3.05998,-3.119979 6.40079,-4.542969 10.53125,-4.542969 z"
         id="path999"
         inkscape:connector-curvature="0" />
    </g>
  </g>
</svg>
