<?xml version="1.0" encoding="UTF-8" standalone="no"?>
<svg
   xmlns:dc="http://purl.org/dc/elements/1.1/"
   xmlns:cc="http://creativecommons.org/ns#"
   xmlns:rdf="http://www.w3.org/1999/02/22-rdf-syntax-ns#"
   xmlns:svg="http://www.w3.org/2000/svg"
   xmlns="http://www.w3.org/2000/svg"
   xmlns:sodipodi="http://sodipodi.sourceforge.net/DTD/sodipodi-0.dtd"
   xmlns:inkscape="http://www.inkscape.org/namespaces/inkscape"
   viewBox="0 0 112.28599 110"
   height="110"
   width="112.28599"
   xml:space="preserve"
   version="1.1"
   id="svg2"
   inkscape:version="0.91 r13725"
   sodipodi:docname="dls_logo.svg"><sodipodi:namedview
     pagecolor="#ffffff"
     bordercolor="#666666"
     borderopacity="1"
     objecttolerance="10"
     gridtolerance="10"
     guidetolerance="10"
     inkscape:pageopacity="0"
     inkscape:pageshadow="2"
     inkscape:window-width="1920"
     inkscape:window-height="1056"
     id="namedview3978"
     showgrid="false"
     inkscape:zoom="0.97319588"
     inkscape:cx="127.90548"
     inkscape:cy="123.33007"
     inkscape:window-x="0"
     inkscape:window-y="24"
     inkscape:window-maximized="1"
     inkscape:current-layer="svg2"
     fit-margin-top="10"
     fit-margin-left="10"
     fit-margin-right="10"
     fit-margin-bottom="10" /><metadata
     id="metadata8"><rdf:RDF><cc:Work
         rdf:about=""><dc:format>image/svg+xml</dc:format><dc:type
           rdf:resource="http://purl.org/dc/dcmitype/StillImage" /><dc:title></dc:title></cc:Work></rdf:RDF></metadata><defs
     id="defs6" /><g
     transform="matrix(0.48038423,0,0,-0.48038423,8.7172252,101.52184)"
     id="g10"><g
       transform="scale(0.1,0.1)"
       id="g12"><path
         id="path14"
         style="fill:#0c75b7;fill-opacity:1;fill-rule:nonzero;stroke:none"
         d="m 1792.73,1905.18 -1222.925,0 c -85.285,0 -155.063,-69.78 -155.063,-155.07 l 0,-1194.938 1377.988,0 c 85.29,0 155.06,69.777 155.06,155.066 l 0,1039.872 c 0,85.29 -69.77,155.07 -155.06,155.07"
         inkscape:connector-curvature="0" /><path
         id="path16"
         style="fill:#ffffff;fill-opacity:1;fill-rule:nonzero;stroke:none"
         d="m 1674.05,783.34 0,-22.801 136.49,0 0,23.102 c 0,51.898 -32.7,71.39 -69.29,71.39 -39.6,0 -67.2,-23.691 -67.2,-71.691 z m 167.09,-1.512 0,-57.59 -197.7,0 0,60 c 0,71.692 39.31,109.492 97.2,109.492 59.1,0 100.5,-42 100.5,-111.902"
         inkscape:connector-curvature="0" /><path
         id="path18"
         style="fill:#ffffff;fill-opacity:1;fill-rule:nonzero;stroke:none"
         d="m 1841.14,930.641 -197.7,0 0,36.297 167.1,0 0,70.792 30.6,0 0,-107.089"
         inkscape:connector-curvature="0" /><path
         id="path20"
         style="fill:#ffffff;fill-opacity:1;fill-rule:nonzero;stroke:none"
         d="m 1844.14,1117.23 c 0,-27.89 -9,-47.69 -18,-60.89 l -26.7,14.7 c 7.5,10.8 15,26.09 15,44.69 0,15.31 -6.3,32.7 -22.8,32.7 -28.2,0 -33.3,-48 -60.3,-72 -8.7,-7.79 -20.09,-12.89 -35.4,-12.89 -29.39,0 -54.29,23.09 -54.29,64.49 0,21 5.09,37.8 11.1,48.6 l 32.39,-0.6 c -8.4,-15.3 -13.8,-29.99 -13.8,-46.2 0,-15.9 6.91,-28.49 20.1,-28.49 36.6,0 34.5,85.49 96,85.49 34.8,0 56.7,-30.6 56.7,-69.6"
         inkscape:connector-curvature="0" /><path
         id="path22"
         style="fill:#2f2e34;fill-opacity:1;fill-rule:nonzero;stroke:none"
         d="m 1404.87,1905.18 -1222.929,0 c -85.2808,0 -155.0582,-69.78 -155.0582,-155.07 l 0,-1194.938 1377.9872,0 c 85.28,0 155.06,69.777 155.06,155.066 l 0,1039.872 c 0,85.29 -69.78,155.07 -155.06,155.07"
         inkscape:connector-curvature="0" /><path
         id="path24"
         style="fill:#ffffff;fill-opacity:1;fill-rule:nonzero;stroke:none"
         d="m 397.875,722.789 -205.668,0 0,746.341 205.668,0 0,-746.341 z m 5.797,912.341 c 0,-31.15 -10.512,-57.31 -31.586,-78.46 -21.047,-21.2 -46.652,-31.8 -76.727,-31.8 -29.66,0 -55.117,10.6 -76.379,31.8 -21.296,21.15 -31.929,47.31 -31.929,78.46 0,30.23 10.633,55.96 31.929,77.16 21.262,21.16 46.719,31.76 76.379,31.76 30.075,0 55.68,-10.6 76.727,-31.76 21.074,-21.2 31.586,-46.93 31.586,-77.16"
         inkscape:connector-curvature="0" /><path
         id="path26"
         style="fill:#ffffff;fill-opacity:1;fill-rule:nonzero;stroke:none"
         d="m 791.145,722.789 -205.672,0 0,746.341 205.672,0 0,-746.341 z m 5.82,912.341 c 0,-31.15 -10.551,-57.31 -31.598,-78.46 -21.074,-21.2 -46.664,-31.8 -76.726,-31.8 -29.649,0 -55.157,10.6 -76.391,31.8 -21.277,21.15 -31.934,47.31 -31.934,78.46 0,30.23 10.657,55.96 31.934,77.16 21.234,21.16 46.742,31.76 76.391,31.76 30.062,0 55.652,-10.6 76.726,-31.76 21.047,-21.2 31.598,-46.93 31.598,-77.16"
         inkscape:connector-curvature="0" /><path
         id="path28"
         style="fill:#ffffff;fill-opacity:1;fill-rule:nonzero;stroke:none"
         d="m 1396.5,1340.09 -195.96,0 0,-382.602 c 0,-38.859 6.45,-67.418 19.34,-85.578 12.89,-18.16 37.82,-27.238 74.8,-27.238 17.61,0 34.58,1.41 50.91,4.219 16.31,2.8 31.39,6.347 45.14,10.73 l 0,-116.723 c -21.94,-9.078 -48.92,-15.808 -80.92,-20.109 -32.01,-4.328 -63.5,-6.488 -94.43,-6.488 -67.95,0 -121.64,21.929 -161.2,65.777 -39.53,43.891 -59.293,106.934 -59.293,189.059 l 0,370.253 -88.317,0 0,106.33 96.08,5.19 68.93,248.37 128.96,0 0,-247.09 195.96,0 0,-114.1"
         inkscape:connector-curvature="0" /><path
         id="path30"
         style="fill:#2f2e34;fill-opacity:1;fill-rule:nonzero;stroke:none"
         d="m 26.7031,247.73 21.6016,0 0,117.648 -21.6016,0 0,-117.648 z"
         inkscape:connector-curvature="0" /><path
         id="path32"
         style="fill:#2f2e34;fill-opacity:1;fill-rule:nonzero;stroke:none"
         d="m 106.152,245.941 c -16.6012,0 -28.3825,5.36 -36.2418,10.707 l 8.7461,15.891 c 6.4335,-4.461 15.5351,-8.918 26.6017,-8.918 9.105,0 19.465,3.75 19.465,13.57 0,16.778 -28.5667,19.821 -42.848,35.879 -4.6445,5.18 -7.6797,11.961 -7.6797,21.059 0,17.5 13.75,32.32 38.3827,32.32 12.5,0 22.496,-3.027 28.922,-6.597 l -0.355,-19.282 c -9.106,4.989 -17.856,8.2 -27.493,8.2 -9.464,0 -16.9606,-4.098 -16.9606,-11.95 0,-21.789 50.8826,-20.539 50.8826,-57.129 0,-20.711 -18.215,-33.75 -41.422,-33.75"
         inkscape:connector-curvature="0" /><path
         id="path34"
         style="fill:#2f2e34;fill-opacity:1;fill-rule:nonzero;stroke:none"
         d="m 247.555,347.352 -32.133,0 0,-99.622 -21.785,0 0,99.622 -34.098,0 0,18.027 93.191,0 -5.175,-18.027"
         inkscape:connector-curvature="0" /><path
         id="path36"
         style="fill:#2f2e34;fill-opacity:1;fill-rule:nonzero;stroke:none"
         d="m 268.629,247.73 21.6016,0 0,117.648 -21.6016,0 0,-117.648 z"
         inkscape:connector-curvature="0" /><path
         id="path38"
         style="fill:#2f2e34;fill-opacity:1;fill-rule:nonzero;stroke:none"
         d="m 396.461,347.352 -32.141,0 0,-99.622 -21.777,0 0,99.622 -34.102,0 0,18.027 93.196,0 -5.176,-18.027"
         inkscape:connector-curvature="0" /><path
         id="path40"
         style="fill:#2f2e34;fill-opacity:1;fill-rule:nonzero;stroke:none"
         d="m 503.586,258.98 c -8.215,-8.21 -20.359,-13.039 -37.856,-13.039 -16.597,0 -28.738,3.938 -36.593,11.61 -8.391,8.027 -11.61,20.347 -11.61,33.379 l 0,74.449 21.61,0 0,-73.008 c 0,-8.582 2.316,-15.543 6.957,-20.723 4.469,-4.82 11.426,-7.32 19.996,-7.32 10,0 16.961,2.692 21.426,7.32 4.461,4.832 6.25,11.43 6.25,19.641 l 0,74.09 21.601,0 0,-73.367 c 0,-13.391 -3.75,-24.992 -11.781,-33.032"
         inkscape:connector-curvature="0" /><path
         id="path42"
         style="fill:#2f2e34;fill-opacity:1;fill-rule:nonzero;stroke:none"
         d="m 621.957,347.352 -32.133,0 0,-99.622 -21.781,0 0,99.622 -34.098,0 0,18.027 93.188,0 -5.176,-18.027"
         inkscape:connector-curvature="0" /><path
         id="path44"
         style="fill:#2f2e34;fill-opacity:1;fill-rule:nonzero;stroke:none"
         d="m 688.895,348.422 c -21.961,0 -37.313,-15.891 -37.313,-42.313 0,-26.597 15.352,-42.488 37.313,-42.488 21.781,0 37.136,15.891 37.136,42.488 0,25.711 -14.644,42.313 -37.136,42.313 z m 43.378,-85.524 c -10.71,-10.707 -25.527,-16.957 -43.203,-16.957 -17.136,0 -31.238,5 -41.593,14.457 -11.965,10.723 -18.567,26.614 -18.567,44.993 0,17.5 6.07,32.859 16.957,43.918 10.535,10.711 25.356,17.14 43.203,17.14 18.926,0 34.637,-6.597 45.168,-18.199 9.821,-10.719 14.821,-25.359 14.821,-41.781 0,-17.321 -5.891,-32.848 -16.786,-43.571"
         inkscape:connector-curvature="0" /><path
         id="path46"
         style="fill:#2f2e34;fill-opacity:1;fill-rule:nonzero;stroke:none"
         d="m 817.094,247.73 21.6016,0 0,117.648 -21.6016,0 0,-117.648 z"
         inkscape:connector-curvature="0" /><path
         id="path48"
         style="fill:#2f2e34;fill-opacity:1;fill-rule:nonzero;stroke:none"
         d="m 944.926,347.352 -32.137,0 0,-99.622 -21.777,0 0,99.622 -34.102,0 0,18.027 93.192,0 -5.176,-18.027"
         inkscape:connector-curvature="0" /><path
         id="path50"
         style="fill:#2f2e34;fill-opacity:1;fill-rule:nonzero;stroke:none"
         d="m 999.016,321.82 c -2.145,5.891 -3.571,10.711 -4.465,14.641 l -0.18,0 c -0.715,-4.102 -2.32,-8.75 -4.281,-14.281 l -10.18,-27.309 28.57,0 -9.464,26.949 z m 27.854,-74.09 -11.61,29.461 -41.955,0 -10.887,-29.461 -21.246,0 45.703,118.18 15.705,0 47.31,-118.18 -23.02,0"
         inkscape:connector-curvature="0" /><path
         id="path52"
         style="fill:#2f2e34;fill-opacity:1;fill-rule:nonzero;stroke:none"
         d="m 1066.87,247.73 0,117.649 21.6,0 0,-99.438 42.13,0 0,-18.211 -63.73,0"
         inkscape:connector-curvature="0" /><path
         id="path54"
         style="fill:#2f2e34;fill-opacity:1;fill-rule:nonzero;stroke:none"
         d="m 1147.56,247.73 21.6133,0 0,117.648 -21.6133,0 0,-117.648 z"
         inkscape:connector-curvature="0" /><path
         id="path56"
         style="fill:#2f2e34;fill-opacity:1;fill-rule:nonzero;stroke:none"
         d="m 1244.16,321.82 c -2.15,5.891 -3.58,10.711 -4.47,14.641 l -0.18,0 c -0.71,-4.102 -2.32,-8.75 -4.29,-14.281 l -10.17,-27.309 28.56,0 -9.45,26.949 z m 27.84,-74.09 -11.6,29.461 -41.95,0 -10.9,-29.461 -21.24,0 45.7,118.18 15.71,0 47.31,-118.18 -23.03,0"
         inkscape:connector-curvature="0" /><path
         id="path58"
         style="fill:#2f2e34;fill-opacity:1;fill-rule:nonzero;stroke:none"
         d="m 1398.23,247.73 -53.2,68.911 c -5,6.609 -8.39,11.07 -11.6,16.07 l -0.36,0 c 0.36,-3.93 0.54,-10.18 0.54,-15.711 l 0,-69.27 -21.61,0 0,117.649 21.96,0 51.24,-66.238 c 5.54,-7.129 8.75,-11.602 11.61,-16.422 l 0.35,0 c -0.35,5.179 -0.35,11.961 -0.35,17.14 l 0,65.52 21.42,0 0,-117.649 -20,0"
         inkscape:connector-curvature="0" /><path
         id="path60"
         style="fill:#2f2e34;fill-opacity:1;fill-rule:nonzero;stroke:none"
         d="m 1500.19,348.422 c -21.96,0 -37.32,-15.891 -37.32,-42.313 0,-26.597 15.36,-42.488 37.32,-42.488 21.78,0 37.13,15.891 37.13,42.488 0,25.711 -14.64,42.313 -37.13,42.313 z m 43.38,-85.524 c -10.71,-10.707 -25.53,-16.957 -43.2,-16.957 -17.14,0 -31.25,5 -41.6,14.457 -11.96,10.723 -18.57,26.614 -18.57,44.993 0,17.5 6.07,32.859 16.96,43.918 10.54,10.711 25.35,17.14 43.21,17.14 18.92,0 34.63,-6.597 45.16,-18.199 9.82,-10.719 14.82,-25.359 14.82,-41.781 0,-17.321 -5.89,-32.848 -16.78,-43.571"
         inkscape:connector-curvature="0" /><path
         id="path62"
         style="fill:#2f2e34;fill-opacity:1;fill-rule:nonzero;stroke:none"
         d="m 61.875,132.91 -13.5703,0 0,-81.2303 13.7461,0 c 30.8906,0 42.4882,19.4687 42.4882,41.2422 0,23.5661 -14.0976,39.9881 -42.664,39.9881 z m -0.8945,-99.4412 -34.2774,0 0,117.6602 35.7032,0 c 42.6717,0 65.1677,-23.391 65.1677,-57.8595 0,-35.1601 -24.996,-59.8007 -66.5935,-59.8007"
         inkscape:connector-curvature="0" /><path
         id="path64"
         style="fill:#2f2e34;fill-opacity:1;fill-rule:nonzero;stroke:none"
         d="m 149.539,33.4688 21.6094,0 0,117.66 -21.6094,0 0,-117.66 z"
         inkscape:connector-curvature="0" /><path
         id="path66"
         style="fill:#2f2e34;fill-opacity:1;fill-rule:nonzero;stroke:none"
         d="m 313.063,133.09 -32.133,0 0,-99.6212 -21.785,0 0,99.6212 -34.094,0 0,18.039 93.187,0 -5.175,-18.039"
         inkscape:connector-curvature="0" /><path
         id="path68"
         style="fill:#2f2e34;fill-opacity:1;fill-rule:nonzero;stroke:none"
         d="m 334.137,33.4688 0,117.6602 65.515,0 -5.886,-18.039 -38.028,0 0,-30.531 38.028,0 0,-18.0277 -38.028,0 0,-33.0196 43.914,0 0,-18.0429 -65.515,0"
         inkscape:connector-curvature="0" /><path
         id="path70"
         style="fill:#2f2e34;fill-opacity:1;fill-rule:nonzero;stroke:none"
         d="m 476.25,31.6797 c -37.488,0 -59.27,25.8906 -59.27,59.4609 0,33.7384 24.993,61.0504 63.735,61.0504 12.5,0 23.566,-2.5 30.531,-6.421 l -0.183,-19.641 c -9.817,5.891 -19.282,8.391 -29.813,8.391 -27.312,0 -40.883,-19.821 -40.883,-41.9614 0,-23.7383 14.992,-42.1289 39.278,-42.1289 10.71,0 19.996,3.0391 28.918,7.8516 l 5.894,-15.5196 C 501.426,34.9102 488.926,31.6797 476.25,31.6797"
         inkscape:connector-curvature="0" /><path
         id="path72"
         style="fill:#2f2e34;fill-opacity:1;fill-rule:nonzero;stroke:none"
         d="m 620.867,33.4688 -53.199,68.9222 c -5,6.597 -8.391,11.058 -11.609,16.058 l -0.356,0 c 0.356,-3.929 0.535,-10.179 0.535,-15.711 l 0,-69.2692 -21.597,0 0,117.6602 21.957,0 51.238,-66.2384 c 5.531,-7.1406 8.746,-11.6093 11.602,-16.4297 l 0.359,0 c -0.359,5.1875 -0.359,11.961 -0.359,17.1407 l 0,65.5274 21.425,0 0,-117.6602 -19.996,0"
         inkscape:connector-curvature="0" /><path
         id="path74"
         style="fill:#2f2e34;fill-opacity:1;fill-rule:nonzero;stroke:none"
         d="m 722.82,134.16 c -21.961,0 -37.312,-15.89 -37.312,-42.3084 0,-26.6016 15.351,-42.4922 37.312,-42.4922 21.782,0 37.137,15.8906 37.137,42.4922 0,25.7074 -14.644,42.3084 -37.137,42.3084 z M 766.199,48.6484 C 755.488,37.9297 740.676,31.6797 722.996,31.6797 c -17.137,0 -31.238,5 -41.594,14.4687 -11.964,10.711 -18.566,26.6016 -18.566,44.9922 0,17.5004 6.07,32.8474 16.961,43.9104 10.531,10.719 25.348,17.14 43.199,17.14 18.93,0 34.637,-6.601 45.168,-18.203 9.82,-10.718 14.82,-25.347 14.82,-41.7771 0,-17.3125 -5.89,-32.8515 -16.785,-43.5625"
         inkscape:connector-curvature="0" /><path
         id="path76"
         style="fill:#2f2e34;fill-opacity:1;fill-rule:nonzero;stroke:none"
         d="m 804.957,33.4688 0,117.6602 21.602,0 0,-99.4493 42.132,0 0,-18.2109 -63.734,0"
         inkscape:connector-curvature="0" /><path
         id="path78"
         style="fill:#2f2e34;fill-opacity:1;fill-rule:nonzero;stroke:none"
         d="m 940.105,134.16 c -21.957,0 -37.312,-15.89 -37.312,-42.3084 0,-26.6016 15.355,-42.4922 37.312,-42.4922 21.786,0 37.137,15.8906 37.137,42.4922 0,25.7074 -14.64,42.3084 -37.137,42.3084 z M 983.492,48.6484 C 972.777,37.9297 957.961,31.6797 940.289,31.6797 c -17.141,0 -31.246,5 -41.598,14.4687 -11.961,10.711 -18.57,26.6016 -18.57,44.9922 0,17.5004 6.07,32.8474 16.957,43.9104 10.539,10.719 25.356,17.14 43.211,17.14 18.922,0 34.633,-6.601 45.164,-18.203 9.82,-10.718 14.817,-25.347 14.817,-41.7771 0,-17.3125 -5.891,-32.8515 -16.778,-43.5625"
         inkscape:connector-curvature="0" /><path
         id="path80"
         style="fill:#2f2e34;fill-opacity:1;fill-rule:nonzero;stroke:none"
         d="m 1076.16,31.6797 c -36.78,0 -59.45,25.8906 -59.45,59.2812 0,34.9881 26.24,61.2301 65.52,61.2301 15,0 26.07,-3.031 34.64,-6.062 l -0.37,-20.18 c -8.92,4.641 -19.81,8.391 -32.13,8.391 -30.88,0 -44.1,-18.93 -44.1,-41.59 0,-24.6406 15.54,-43.2109 41.24,-43.2109 7.86,0 14.29,1.25 18.57,3.2226 l 0,39.9883 21.6,0 0,-49.9883 c -10.71,-5.8906 -26.6,-11.082 -45.52,-11.082"
         inkscape:connector-curvature="0" /><path
         id="path82"
         style="fill:#2f2e34;fill-opacity:1;fill-rule:nonzero;stroke:none"
         d="m 1147.4,33.4688 21.6133,0 0,117.66 -21.6133,0 0,-117.66 z"
         inkscape:connector-curvature="0" /><path
         id="path84"
         style="fill:#2f2e34;fill-opacity:1;fill-rule:nonzero;stroke:none"
         d="m 1243.99,107.559 c -2.14,5.89 -3.57,10.711 -4.46,14.64 l -0.18,0 c -0.71,-4.097 -2.32,-8.75 -4.29,-14.277 l -10.17,-27.3126 28.56,0 -9.46,26.9496 z m 27.85,-74.0902 -11.6,29.4609 -41.95,0 -10.9,-29.4609 -21.24,0 45.7,118.1792 15.71,0 47.31,-118.1792 -23.03,0"
         inkscape:connector-curvature="0" /></g></g></svg>